<?xml version="1.0" encoding="utf-8"?>
<!-- Generator: Adobe Illustrator 22.1.0, SVG Export Plug-In . SVG Version: 6.00 Build 0)  -->
<svg version="1.1" id="圖層_1" xmlns="http://www.w3.org/2000/svg" xmlns:xlink="http://www.w3.org/1999/xlink" x="0px" y="0px"
	 viewBox="0 0 129 44" style="enable-background:new 0 0 129 44;" xml:space="preserve">
<style type="text/css">
	.st0{fill:#80BC00;stroke:#80BC00;stroke-miterlimit:10;}
	.st1{fill:#80BC00;}
</style>
<g>
	<g>
		<path class="st0" d="M79,33.8h8.3c0.3,0,0.5,0.2,0.5,0.6c0,0.4-0.2,0.6-0.5,0.6H79v1.8c0,0.8,0.8,1.2,2.3,1.2h6
			c0.3,0,0.5,0.2,0.5,0.6c0,0.4-0.2,0.6-0.5,0.6h-6.1c-2.4,0-3.7-0.8-3.7-2.3v-4.8c0-0.8,0.3-1.4,0.9-1.7c0.6-0.4,1.6-0.6,2.8-0.6
			H83c0.3,0,0.5,0.2,0.5,0.6c0,0.4-0.2,0.5-0.5,0.5h-1.1c-1.9,0-2.9,0.4-2.9,1.2V33.8z"/>
		<path class="st0" d="M101.7,38.2c0,0.3-0.1,0.5-0.3,0.7c-0.2,0.2-0.4,0.2-0.6,0.2c-0.1,0-0.2,0-0.3-0.1c-0.1,0-0.2-0.1-0.3-0.2
			l-8.3-7.5v7.1c0,0.4-0.2,0.6-0.7,0.6s-0.7-0.2-0.7-0.6v-8.1c0-0.3,0.1-0.5,0.3-0.6c0.2-0.1,0.4-0.2,0.6-0.2c0.1,0,0.3,0,0.4,0.1
			c0.1,0,0.2,0.1,0.3,0.2l8.2,7.3v-7c0-0.4,0.2-0.6,0.7-0.6c0.4,0,0.7,0.2,0.7,0.6V38.2z"/>
		<path class="st0" d="M114.9,36.9c0,1.5-1.2,2.2-3.5,2.2h-6.3c-0.4,0-0.5-0.2-0.5-0.6c0-0.4,0.2-0.5,0.5-0.5h6.4
			c1.3,0,1.9-0.4,1.9-1.1V36c0-0.8-0.8-1.2-2.3-1.2h-2.8c-2.5,0-3.7-0.7-3.7-2v-0.9c0-1.5,1.1-2.2,3.2-2.2h1.6
			c0.4,0,0.5,0.2,0.5,0.6c0,0.4-0.2,0.5-0.5,0.5h-1.8c-1.1,0-1.6,0.4-1.6,1.2v0.7c0,0.7,0.7,1,2,1h2.9c2.6,0,3.9,0.7,3.9,2.2V36.9z"
			/>
		<path class="st0" d="M119.2,33.8h8.3c0.3,0,0.5,0.2,0.5,0.6c0,0.4-0.2,0.6-0.5,0.6h-8.3v1.8c0,0.8,0.8,1.2,2.3,1.2h6
			c0.3,0,0.5,0.2,0.5,0.6c0,0.4-0.2,0.6-0.5,0.6h-6.1c-2.4,0-3.7-0.8-3.7-2.3v-4.8c0-0.8,0.3-1.4,0.9-1.7c0.6-0.4,1.6-0.6,2.8-0.6
			h1.6c0.3,0,0.5,0.2,0.5,0.6c0,0.4-0.2,0.5-0.5,0.5h-1.1c-1.9,0-2.9,0.4-2.9,1.2V33.8z"/>
	</g>
	<g>
		<path class="st1" d="M63.2,26.6c0.1,0.2,0.2,0.4,0.3,0.7c0.1,0.2,0.2,0.3,0.2,0.5c-0.1-0.2-0.2-0.5-0.3-0.7c0,0,0,0,0-0.1
			c-0.1-0.2-0.2-0.4-0.3-0.6c0,0-0.1-0.1-0.1-0.1C63,26.1,63,26.3,63.2,26.6z"/>
		<path class="st1" d="M63.4,17c-0.8-0.4-1.5-0.8-2.3-1.2c0.4,0.6,0.9,1.2,1.6,1.7c0.6,0.6,1.3,1.1,1.8,1.6c1.7,1.3,3.2,2.8,4.1,4.6
			c-0.4-1.9-1.3-3.8-2.9-5.4C65,17.8,64.1,17.4,63.4,17z"/>
		<path class="st1" d="M68.9,26.2c0-0.1,0-0.1,0-0.2c-0.5-1.7-1.5-3.2-3-4.3c-0.5-0.4-0.9-1-1.2-1.6c-0.4-0.6-0.8-1.2-1.5-1.5
			c-2.6-1.4-5.3-2.7-8.5-3.4c-3.2-0.7-7-0.8-10.3,0.6c-0.8,0-1.6,0.1-2.4,0.2c0.5,0.1,1,0.2,1.5,0.2c0.5,0,0.9,0,1.4-0.1
			c0.1,0,0.2,0,0.3,0c0.3-0.1,0.3-0.1,0.5-0.2c2,0.8,4.7,0.5,8,0.7c3.2,0.1,6.8,0.8,9,2.1c0.6,0.4,1.1,0.9,1.6,1.3
			c0.5,0.5,1,0.9,1.4,1.5c-0.7-0.2-1.9-0.4-2.4-0.7c-1.2-0.8-2.4-1.7-3.9-2.3c-0.7-0.3-1.5-0.6-2.3-0.8c-0.8-0.2-1.7-0.3-2.5-0.3
			c0.6,0.4,1,0.8,1.5,1.1c0.4,0.4,1,0.7,1.6,1c0.3,0.1,0.9,0.1,1.5,0.2c0.6,0,1.1,0.1,1.3,0.3c1.3,1,2.7,1.7,3.9,2.7
			c1.1,1,2,2.2,2.1,3.8c0,0.3-0.6,0.6-0.4,0.9c-0.4-1.7-1.5-3.1-2.8-4.2c-1.3-1.1-2.9-1.9-4.5-2.8c-0.3-0.4-0.7-0.6-1-1
			c-0.7-0.1-1.3-0.1-1.7-0.3c-2.1-0.9-4.2-0.4-5.9,0.3c-0.9,0.3-1.7,0.6-2.4,0.8c-0.8,0.2-1.5,0.2-2.5,0c0.5,0,1-0.1,1.7-0.3
			c0.6-0.2,1.4-0.5,2.2-0.8c0.8-0.3,1.7-0.6,2.4-0.8c0.8-0.2,1.5-0.4,2.1-0.6c-1.5-0.2-4.1,0-6.5,0.5c-2.4,0.5-4.6,1.3-6.2,1.7
			c-1.9,0.5-2.7,1.1-3.2,1.7c-0.3,0.3-0.5,0.6-0.7,1c-0.3,0.4-0.6,0.9-1,1.4c-0.2,0.2-0.4,1.1-0.5,2c-0.1,0.4,0,0.9,0,1.2
			c0.1,0.4,0.1,0.7,0.1,1c0.3-0.7,0.5-1.4,0.8-1.9c0.1-0.3,0.3-0.5,0.4-0.8c0.2-0.2,0.3-0.4,0.6-0.5c0.2-0.3,0.5-0.6,0.8-0.9
			c0.3-0.3,0.6-0.6,1-0.9c0.7-0.6,1.5-1.1,2.3-1.6c1.6-0.9,3.1-1.3,3.5-1.3c0.2,0,0.1,0.1-0.3,0.3c-0.4,0.2-1.2,0.6-2.2,1.2
			c-0.5,0.3-1,0.6-1.6,1c-0.6,0.4-1.2,0.9-1.8,1.4c-1.1,1.1-2.3,2.6-2.3,4.4c0.1-0.1,0.6-1.1,1.3-1.8c0.7-0.7,1.7-1.1,1.8-1
			c0.2,0.2-1,1-1.7,2c-0.3,0.5-0.5,1.1-0.5,1.6c0,0.2,0,0.4,0,0.6c0,0,0.1,0,0.1,0.1c0,0,0.1,0,0.1,0c0.1,0,0.2,0,0.3,0
			c0.1,0,0.1,0,0.2,0c0,0,0,0,0,0l0,0c0,0,0.1,0,0.1,0l0,0l0,0l0-0.1l0-0.1l0-0.2l0.1,0c0.3-0.2,0.6-0.4,0.9-0.5
			c0.7-0.3,1.2-0.3,1.3-0.4c-0.1-0.2,0-0.2-0.3-0.5c0.3-0.2,0.4-0.5,0.7-0.9c0.1-0.1,0.2-0.3,0.3-0.4c0.1-0.2,0.2-0.4,0.4-0.5
			c0.3-0.3,0.6-0.7,1.1-1c0.8-0.6,2-0.8,2.5-0.2c0.1,0.1,0.9-0.5,1.2-0.7c0.8,0,1.3,0.3,1.7,0.7c0.4,0.4,0.7,0.7,1.6,0.8
			c0.5,0.1,0.5,0.5,0.4,0.8c0,0.3-0.2,0.7,0.2,0.9c1.2,0.3,1.7,1.2,1.3,2c-0.4,0.8-1.7,1.5-2.9,1.8c2.6,0.5,1.5,0.7,1.1,0.8
			c-0.6,0.5-1.6,0.8-2.6,0.8c-1,0-0.4,0.5-1.2,0.1c-0.5,0-1.4-2-1.9-2.3l-3.1-0.6c-0.1,0.4,0,0.9,0.4,1.1c0.1,0.3,0.5,0.4,0.9,0.4
			c0.1,0.1,0.4,0.1,0.4,0.8c-1.1-0.4-2.2-0.9-3-1.9l0.1,1.1c0,0-0.9-0.4-0.8-0.3c-0.6,0.1-0.7-0.8-0.9-0.4c-0.2,0.9,0.3,1.6,1,2.1
			c0.1,0.1,0.1,0,0.2,0.1c0,0,0.1,0.1,0.1,0.1c0.1,0.1,0.1,0.1,0.3,0.1c0.1,0.1,0.2,0.3,0.3,0.4c0,0.8,0.1,1.6,0.5,2.4
			c0.3,0.5,0.7,1,1.3,1.4c0.5,0.4,0,1.9,0.6,2.2c1.2,0.6,2.6,1,4.1,1.6c2.2,0.7,4.6,1.2,7,1.1c2.4,0,4.8-0.4,6.9-1.2
			c4.2-1.5,7.5-4.5,8.8-8.7c0.2-0.4,0.4-1.3,0.2-2.1c-0.5,2.8-2.1,5.1-4.1,6.8c-2,1.7-4.5,2.9-7.2,3.6c-2.7,0.7-5.7,0.8-8.5,0.4
			c-1.6-0.2-2.9-1.1-4-2c2.1,0.7,4.6,1.2,7.1,1.1c1.7,0,3.3-0.2,5-0.6c1.6-0.4,3.2-1,4.6-1.7c2.8-1.6,5.2-4,6.1-7.2
			c0.2-0.4,0.3-0.8,0.3-1.2c0.3,0.1,0.5,0.4,0.6,0.8c0-0.2,0.1-0.4,0.1-0.7l0.1-0.7c0.3-2.1-0.3-4.2-1.3-5.9
			C68.8,24.5,68.9,25.4,68.9,26.2z M38.3,30.4L38.3,30.4L38.3,30.4L38.3,30.4z M38.3,30.4L38.3,30.4L38.3,30.4L38.3,30.4L38.3,30.4
			L38.3,30.4z M38.2,30.4L38.2,30.4L38.2,30.4L38.2,30.4L38.2,30.4L38.2,30.4L38.2,30.4C38.2,30.4,38.2,30.4,38.2,30.4
			C38.2,30.4,38.2,30.4,38.2,30.4z M38.3,30.4L38.3,30.4L38.3,30.4L38.3,30.4z M63.2,26.4c0.1,0.1,0.2,0.3,0.3,0.6c0,0,0,0,0,0.1
			c0.1,0.2,0.2,0.4,0.3,0.7c0.6,1.5,0.7,3.2,0,4.7c0.1-0.3,0.1-0.6,0.1-0.7c0.3-1.3,0.3-2.4,0.1-3.3c-0.1-0.4-0.2-0.8-0.3-1.2
			c0,0,0,0,0,0c-0.8-1.7-2.3-2.9-3.9-3.9c-1.8-1-3.9-1.6-5.9-1.8C57.5,21.1,61.4,23.1,63.2,26.4z M41.5,36c-0.5-0.5-0.9-1.1-1.2-1.6
			c0.4,0.5,1,1.1,1.6,1.6c0.3,0.2,0.5,0.6,0.7,1.1C42.2,36.7,41.9,36.4,41.5,36z M67.7,28.8c0,0.4-0.1,0.9-0.1,1.4
			c0,0.4-0.2,0.9-0.3,1.3c-0.5,1.8-1.7,3.3-3.1,4.4c-1.4,1.2-3.1,2-4.9,2.6c-3.6,1.1-7.7,1.1-11,0.2c-3.3-0.8-4.6-3.2-6.1-4.4
			c0.6,0.1,1.1,0.2,1.7,0.3c0.8,0.3,0.6,1.7,1.6,2c0.5,0.2,1,0.5,1.5,0.7c0.6,0.2,1.2,0.4,1.8,0.6c0.6,0.2,1.3,0.4,2.1,0.5
			c0.7,0.2,1.5,0.3,2.2,0.3c2.9,0.2,5.9-0.4,7.9-1.9c-0.9,0.5-2,0.9-3.1,1c-1.2,0.1-2.3,0.2-3.7-0.1c1,0,1.8-0.1,2.7-0.3
			c0.9-0.2,1.8-0.4,2.6-0.8c0.2-0.3,0.5-0.5,0.8-0.7c0.3-0.2,0.5-0.3,0.8-0.5c1.1-0.4,2.1-0.9,2.8-1.6c1.8-1.7,2.5-4,2.6-6.2
			c0-2.2-0.6-4.2-1.4-6.2c1.1,1.4,1.9,2.9,2.3,4.6c0.1,0.4,0.2,0.8,0.2,1.3c0,0.2,0.1,0.4,0.1,0.7L67.7,28.8z"/>
		<path class="st1" d="M40.7,17c0.6-0.1,1.1-0.3,1.7-0.4c0.2,0,0.3,0,0.5,0c-0.2,0-0.4-0.1-0.7-0.1c-0.3,0-0.7,0.3-1.1,0.4
			c-0.1,0-0.1-0.2-0.2-0.1c-0.3,0.1-0.6,0.3-1,0.3c-0.1,0.1-0.4-0.2-0.6-0.1c-0.3,0.1-1.2,0.6-0.7,0.5C39.5,17.3,40,17.1,40.7,17z"
			/>
		<path class="st1" d="M112.7,23.8c-0.7,0.2-1.4,0.4-2.2,0.2c-0.3,0,0.1-0.9-0.5-0.8c-1.1,0-2.2,0-3.2-0.3c-0.5,0-0.8-1.2-1.3-1.2
			c-1.1-0.1-4.2-0.1-2.7,0.5c2.4,0.8,4,1.2,6.2,1.7c1.9,0.2,3.7,0.2,5.7,0.2c0.5,0,1,0.2,1.5,0.3c-0.6-0.2-1.2-0.5-1.9-0.8
			C113.9,23.5,113.4,23.6,112.7,23.8z"/>
		<path class="st1" d="M124.6,22.7c-0.1-0.2-0.2-0.5-0.5-0.6c-0.2,0.1-0.6,0.4-0.6,0.4c-0.5-0.2-1-0.4-1.5-0.3c-0.5,0-1,0.2-1.5,0.3
			c0.2,0.2,0.3,0.3,0.5,0.5c0.6-0.1,0.7-0.4,0.1-0.5c0.6,0.3,1.2,0.4,1.8,0.4C123.4,22.9,124,22.8,124.6,22.7z"/>
		<path class="st1" d="M106.5,21c-1.2-0.3-2.2-0.9-3.1-1.9c0.4,0.4,0.2,0.6-0.3,0.4l-0.2-0.6c1.1,0.2,2.2,0.3,2.9,1.4
			c0,0,0.5,0,0.8-0.1C106.6,20.4,106.5,20.7,106.5,21c0.2,0.1,0.5,0.1,0.7,0.2c-0.3-0.6-1.5-1.8-1.5-1.8c-2.8-1.1-5.4-2.4-7.8-3.6
			c-0.3,0.1-0.5,0.2-0.7,0c-0.1-0.2-0.3-0.4-0.4-0.6c-0.4-0.2-0.7-0.4-1.1-0.6c-0.1-0.1-0.2-0.1-0.3-0.2l-0.1-0.1
			c-0.8-0.4-1.4-0.7-2.2-1.2c-0.2-0.1-0.4-0.1-0.6-0.2c-0.7-0.2-1.3-0.3-1.5-0.9c-0.1-0.1-0.3-0.1-0.4-0.2c0,0,0,0.1,0.1,0.1
			c-0.1-0.1-0.1-0.1-0.1-0.2c-0.6-0.3-1.3-0.6-1.9-0.9c-0.6-0.3-1.2-0.6-1.9-0.9c-0.6-0.3-1.3-0.6-1.9-0.9
			c-8.4-3.8-16.9-5.6-26.5-6.8c-5.2-0.6-10.3-0.8-15.4-0.7c-5.1,0.1-9.8,1.4-14.5,2.9C23.6,5.9,19.1,7.9,14,9.8
			c-1.9,0.8-4.4,2.5-6.6,4.7c-2.2,2.1-4.1,4.6-5.3,6.4c-1,2.9,0.1,4.1,1.2,4.7c0.4,0.2,0.7,0.3,1.1,0.4c0.1,0.1,0.3,0.1,0.5,0.2
			c0.5,0.2,1.1,0.3,2.4,0.7c-1.4-0.4,1.1-0.4,2.5,0c1,0.4,2.3,0.2,3.5-0.2c1.2-0.3,2.4-0.9,3.6-1.2c0.6-0.1,1.2-0.4,1.8-0.7
			c3.5-1,6.5-2.7,10.1-4c0.9-0.3,1.7-0.9,2.4-1.2c0.6-0.2,1.2-0.3,1.7-0.5c0.7-0.2,1.4-0.5,2-0.8c-0.7,0.2-1.2,0.4-1.9,0.7
			c-0.5,0.2,0.3-0.4,0.6-0.6c0.1-0.1,0.4,0.1,0.6,0c0.3-0.1,0.6-0.3,0.9-0.4c0.1-0.1,0.2,0.1,0.2,0.1c0.5-0.2,0.7-0.6,1.1-0.6
			c0.2,0,0.4,0,0.7,0c0.1,0,0.3,0,0.4-0.1l0.2-0.1c0.6-0.3,1.3-0.5,2-0.7l0,0c-0.4,0.1-0.8,0.1-1.2,0.1c0.2,0,0.2,0.1,0,0.1
			l-0.2-0.1c0.3-0.1,0.7-0.3,1.1-0.1c0,0,0.1-0.1,0.2-0.1c0.1,0,0.1,0.1,0.2,0.2c0.1,0,0.2,0,0.2-0.1c-0.2-0.1-0.7-0.2-0.7-0.2
			c-1,0.2-2,0.3-2.9,0.6c-0.1,0.1-0.1,0.1-0.2,0.1c-0.1,0-0.2,0-0.2,0l-0.4,0.1c0,0-0.1,0-0.1,0.1l0,0c-0.1,0,0,0.1,0,0.1
			c-0.1,0-0.1,0-0.2,0l0.2-0.1l0.1,0l-0.9,0.2c-0.1,0-0.1,0-0.2,0.1c-0.2,0.1-0.4,0.2-0.6,0.1l-0.2,0l0,0l-0.1,0l-0.7,0.2
			c-0.5,0.1-0.9,0.2-1.4,0.4c-3,0.8-5.6,1.9-8.6,3c-1.6,0.6-3.2,1.1-4.8,1.6c-1.6,0.5-3,1-4.5,1.4c-1.3,0.3-2.6,0.5-3.9,0.4
			c0.3-0.2,0.5-0.5,0.8-0.7c1.1-1.1,2.5-2.5,5.3-3.6c-0.7,0-1.7-0.1-0.5-1.2c1.2-1.2,3.5-2.5,5.7-2.4c3.2,0.2,5.9-1.1,8.8-2.5
			c0.7-0.3,1.5-0.7,2.2-1.1c0.7-0.4,1.5-0.6,2.3-0.9c0.8-0.3,1.5-0.6,2.3-0.8c0.8-0.2,1.6-0.3,2.4-0.4c1.6-0.2,3.2-0.5,5.1-0.8
			c5,0,9.7-0.2,14.5,0c4.9,0.1,9.9,0.7,15,2.2c0.7,0.2,1.4,0.3,2,0.4c0.7,0.1,1.3,0.2,2,0.2c1.3,0.1,2.6,0.1,3.8,0.3
			c1.7,0.5,3.3,1.5,4.6,2.1c1,0.4,2,0.8,3,1c1,0.3,1.9,0.5,2.9,0.8c-1-0.4-1.9-0.7-2.8-1c-0.9-0.3-1.8-0.6-2.9-0.9
			c-1.4-0.6,1.5-0.7,2.5-0.5c0.5,0,0.7,1.2,1.2,1.2c0.9,0.4,1.9,0.4,2.9,0.6c0.5,0,0,0.8,0.3,0.8c1.4,0.4,2.9-0.2,3.7,0.5
			c0.6,0.4,1.1,0.9,1.6,1.2c0.3,0.2,0.7,0.4,1.1,0.6c0.3,0,0.5,0.1,0.8,0.1C102.1,20.3,104.4,20.7,106.5,21
			C106.5,21,106.5,21,106.5,21z M31.8,18.2c-0.2,0.1-0.5,0.2-0.7,0.1C31.3,18.1,31.5,18.2,31.8,18.2z M83.9,9.1
			c1-0.1,1.5,0.5,1.9,1.2C85.1,10.2,84.4,9.8,83.9,9.1z"/>
	</g>
</g>
</svg>
